<?xml version="1.0" encoding="UTF-8" standalone="no"?>
<!-- Created with Inkscape (http://www.inkscape.org/) -->

<svg
   width="1920"
   height="1080"
   viewBox="0 0 1920 1080"
   version="1.1"
   id="svg5"
   xml:space="preserve"
   inkscape:version="1.2.1 (9c6d41e410, 2022-07-14)"
   sodipodi:docname="asakusa.svg.2022_09_03_13_36_35.0.svg"
   xmlns:inkscape="http://www.inkscape.org/namespaces/inkscape"
   xmlns:sodipodi="http://sodipodi.sourceforge.net/DTD/sodipodi-0.dtd"
   xmlns="http://www.w3.org/2000/svg"
   xmlns:svg="http://www.w3.org/2000/svg"><sodipodi:namedview
     id="namedview7"
     pagecolor="#ffffff"
     bordercolor="#000000"
     borderopacity="0.25"
     inkscape:showpageshadow="2"
     inkscape:pageopacity="0.0"
     inkscape:pagecheckerboard="0"
     inkscape:deskcolor="#d1d1d1"
     inkscape:document-units="px"
     showgrid="false"
     inkscape:zoom="0.68229167"
     inkscape:cx="889.64885"
     inkscape:cy="541.55725"
     inkscape:window-width="1920"
     inkscape:window-height="1005"
     inkscape:window-x="-9"
     inkscape:window-y="-9"
     inkscape:window-maximized="1"
     inkscape:current-layer="layer5" /><defs
     id="defs2" /><g
     inkscape:groupmode="layer"
     id="layer3"
     inkscape:label="Draw - Door"
     style="display:inline"><path
       style="display:inline;fill:#f9f9f9;fill-opacity:1;stroke:#808000;stroke-width:1.01773"
       d="m 506.07354,355.21664 816.93356,5.93294 23.7522,510.23192 -900.73173,-5.93293 z"
       id="path5271"
       inkscape:label="Wall" /><rect
       style="display:inline;fill:#666666;stroke:none;stroke-width:0.998116"
       id="rect1524"
       width="400.12402"
       height="386.9332"
       x="705.35706"
       y="483.54117"
       ry="0"
       inkscape:label="Entrance" /><g
       id="g3368"
       inkscape:label="Side rooms - left"
       style="display:inline"
       transform="translate(-78.764138,-70.473176)"><path
         style="font-size:126.472px;letter-spacing:-5px;word-spacing:-5px;display:inline;fill:#28170b;stroke:none;stroke-width:0"
         d="m 574.53435,611.17557 -8.79389,177.34353 208.12213,-4.66697 8.79389,-168.00962 z"
         id="path1764" /><path
         style="display:inline;fill:#000000;stroke:none;stroke-width:1.00966"
         d="m 576.73283,765.0687 204.45801,5.97643 -28.58016,147.9167 -202.25954,-18.67636 z"
         id="path1417"
         sodipodi:nodetypes="ccccc" /><rect
         style="display:inline;fill:#000000;stroke:none"
         id="rect1304"
         width="193.46565"
         height="39.572517"
         x="590.24939"
         y="565.00763" /><g
         id="g3363"
         inkscape:label="Green deco beams"
         style="display:inline;fill:#0a350a;fill-opacity:1"
         transform="matrix(0.98156251,0,0,1,10.367403,0)"><rect
           style="display:inline;fill:#0a350a;fill-opacity:1;stroke:none;stroke-width:1.40712"
           id="rect2627"
           width="13.19084"
           height="72.549614"
           x="612.52362"
           y="566.47327" /><rect
           style="display:inline;fill:#0a350a;fill-opacity:1;stroke:none;stroke-width:1.40712"
           id="rect2627-5"
           width="13.19084"
           height="72.549614"
           x="634.79785"
           y="566.47327" /><rect
           style="display:inline;fill:#0a350a;fill-opacity:1;stroke:none;stroke-width:1.40712"
           id="rect2627-5-6"
           width="13.19084"
           height="72.549614"
           x="657.07214"
           y="566.47327" /><rect
           style="display:inline;fill:#0a350a;fill-opacity:1;stroke:none;stroke-width:1.40712"
           id="rect2627-5-62"
           width="13.19084"
           height="72.549614"
           x="679.34637"
           y="566.47327" /><rect
           style="display:inline;fill:#0a350a;fill-opacity:1;stroke:none;stroke-width:1.40712"
           id="rect2627-5-4"
           width="13.19084"
           height="72.549614"
           x="701.62061"
           y="566.47327" /><rect
           style="display:inline;fill:#0a350a;fill-opacity:1;stroke:none;stroke-width:1.40712"
           id="rect2627-5-0"
           width="13.19084"
           height="72.549614"
           x="723.89484"
           y="566.47327" /><rect
           style="display:inline;fill:#0a350a;fill-opacity:1;stroke:none;stroke-width:1.40712"
           id="rect2627-5-06"
           width="13.19084"
           height="72.549614"
           x="746.16913"
           y="566.47327" /><rect
           style="display:inline;fill:#0a350a;fill-opacity:1;stroke:none;stroke-width:1.40712"
           id="rect2627-5-628"
           width="13.19084"
           height="72.549614"
           x="768.44336"
           y="566.47327" /><rect
           style="display:inline;fill:#0a350a;fill-opacity:1;stroke:none;stroke-width:1.40712"
           id="rect2627-5-07"
           width="13.19084"
           height="72.549614"
           x="591.38934"
           y="566.47327" /><rect
           style="display:inline;fill:#0a350a;fill-opacity:1;stroke:none;stroke-width:1.88877"
           id="rect2627-54"
           width="13.140029"
           height="131.21973"
           x="604.15942"
           y="761.37354" /><rect
           style="display:inline;fill:#0a350a;fill-opacity:1;stroke:none;stroke-width:1.88876"
           id="rect2627-5-7"
           width="13.140029"
           height="131.21973"
           x="626.3479"
           y="761.48016" /><rect
           style="display:inline;fill:#0a350a;fill-opacity:1;stroke:none;stroke-width:1.88876"
           id="rect2627-5-6-5"
           width="13.140029"
           height="131.21973"
           x="648.53638"
           y="762.33282" /><rect
           style="display:inline;fill:#0a350a;fill-opacity:1;stroke:none;stroke-width:1.91665"
           id="rect2627-5-62-1"
           width="13.140029"
           height="135.12454"
           x="670.72485"
           y="762.75909" /><rect
           style="display:inline;fill:#0a350a;fill-opacity:1;stroke:none;stroke-width:1.89437"
           id="rect2627-5-4-1"
           width="13.140029"
           height="132.00026"
           x="692.91321"
           y="762.75909" /><rect
           style="display:inline;fill:#0a350a;fill-opacity:1;stroke:none;stroke-width:1.91665"
           id="rect2627-5-0-9"
           width="13.140029"
           height="135.12454"
           x="715.10168"
           y="762.75909" /><rect
           style="display:inline;fill:#0a350a;fill-opacity:1;stroke:none;stroke-width:1.93869"
           id="rect2627-5-06-1"
           width="13.140029"
           height="138.24879"
           x="737.29016"
           y="762.75909" /><rect
           style="display:inline;fill:#0a350a;fill-opacity:1;stroke:none;stroke-width:1.89997"
           id="rect2627-5-628-4"
           width="13.140029"
           height="132.78133"
           x="759.47858"
           y="762.75909"
           ry="0" /><rect
           style="display:inline;fill:#0a350a;fill-opacity:1;stroke:none;stroke-width:1.88876"
           id="rect2627-5-07-0"
           width="13.140029"
           height="131.21919"
           x="583.10663"
           y="761.26697" /><rect
           style="display:inline;fill:#0a350a;fill-opacity:1;stroke:none;stroke-width:1.89997"
           id="rect2627-5-07-0-3"
           width="13.140029"
           height="132.78133"
           x="562.30023"
           y="758.63025" /></g></g><g
       id="g3376"
       inkscape:label="Side rooms - right"
       transform="matrix(-1.0212609,0,0,1.0115764,1902.1657,-70.819666)"
       style="display:inline"><path
         style="font-size:126.472px;letter-spacing:-5px;word-spacing:-5px;display:inline;fill:#28170b;stroke:none;stroke-width:0"
         d="m 569.39011,613.78902 -9.18443,179.42057 217.36484,-4.72163 9.18443,-169.97734 z"
         id="path3370" /><path
         style="display:inline;fill:#000000;stroke:none;stroke-width:1.03786"
         d="m 571.68622,769.48454 213.538,6.04642 -29.8494,149.64909 -211.2419,-18.89509 z"
         id="path3372"
         sodipodi:nodetypes="ccccc" /><rect
         style="display:inline;fill:#000000;stroke:none;stroke-width:1.02793"
         id="rect3374"
         width="202.05746"
         height="40.035988"
         x="585.8031"
         y="567.08038" /><g
         id="g3416"
         inkscape:label="Green deco beams"
         style="display:inline;fill:#0a350a;fill-opacity:1"
         transform="matrix(0.96112921,0,0,0.9885572,16.169467,2.424891)"><rect
           style="display:inline;fill:#0a350a;fill-opacity:1;stroke:none;stroke-width:1.40712"
           id="rect3378"
           width="13.19084"
           height="72.549614"
           x="612.52362"
           y="566.47327" /><rect
           style="display:inline;fill:#0a350a;fill-opacity:1;stroke:none;stroke-width:1.40712"
           id="rect3380"
           width="13.19084"
           height="72.549614"
           x="634.79785"
           y="566.47327" /><rect
           style="display:inline;fill:#0a350a;fill-opacity:1;stroke:none;stroke-width:1.40712"
           id="rect3382"
           width="13.19084"
           height="72.549614"
           x="657.07214"
           y="566.47327" /><rect
           style="display:inline;fill:#0a350a;fill-opacity:1;stroke:none;stroke-width:1.40712"
           id="rect3384"
           width="13.19084"
           height="72.549614"
           x="679.34637"
           y="566.47327" /><rect
           style="display:inline;fill:#0a350a;fill-opacity:1;stroke:none;stroke-width:1.40712"
           id="rect3386"
           width="13.19084"
           height="72.549614"
           x="701.62061"
           y="566.47327" /><rect
           style="display:inline;fill:#0a350a;fill-opacity:1;stroke:none;stroke-width:1.40712"
           id="rect3388"
           width="13.19084"
           height="72.549614"
           x="723.89484"
           y="566.47327" /><rect
           style="display:inline;fill:#0a350a;fill-opacity:1;stroke:none;stroke-width:1.40712"
           id="rect3390"
           width="13.19084"
           height="72.549614"
           x="746.16913"
           y="566.47327" /><rect
           style="display:inline;fill:#0a350a;fill-opacity:1;stroke:none;stroke-width:1.40712"
           id="rect3392"
           width="13.19084"
           height="72.549614"
           x="768.44336"
           y="566.47327" /><rect
           style="display:inline;fill:#0a350a;fill-opacity:1;stroke:none;stroke-width:1.40712"
           id="rect3394"
           width="13.19084"
           height="72.549614"
           x="591.38934"
           y="566.47327" /><rect
           style="display:inline;fill:#0a350a;fill-opacity:1;stroke:none;stroke-width:1.94753"
           id="rect3396"
           width="13.140029"
           height="139.51068"
           x="604.15942"
           y="761.37354" /><rect
           style="display:inline;fill:#0a350a;fill-opacity:1;stroke:none;stroke-width:1.95474"
           id="rect3398"
           width="13.140029"
           height="140.54704"
           x="626.3479"
           y="761.48016" /><rect
           style="display:inline;fill:#0a350a;fill-opacity:1;stroke:none;stroke-width:1.88876"
           id="rect3400"
           width="13.140029"
           height="131.21973"
           x="648.53638"
           y="762.33282" /><rect
           style="display:inline;fill:#0a350a;fill-opacity:1;stroke:none;stroke-width:1.91665"
           id="rect3402"
           width="13.140029"
           height="135.12454"
           x="670.72485"
           y="762.75909" /><rect
           style="display:inline;fill:#0a350a;fill-opacity:1;stroke:none;stroke-width:1.89437"
           id="rect3404"
           width="13.140029"
           height="132.00026"
           x="692.91321"
           y="762.75909" /><rect
           style="display:inline;fill:#0a350a;fill-opacity:1;stroke:none;stroke-width:1.91665"
           id="rect3406"
           width="13.140029"
           height="135.12454"
           x="715.10168"
           y="762.75909" /><rect
           style="display:inline;fill:#0a350a;fill-opacity:1;stroke:none;stroke-width:1.93869"
           id="rect3408"
           width="13.140029"
           height="138.24879"
           x="737.29016"
           y="762.75909" /><rect
           style="display:inline;fill:#0a350a;fill-opacity:1;stroke:none;stroke-width:1.89997"
           id="rect3410"
           width="13.140029"
           height="132.78133"
           x="759.47858"
           y="762.75909"
           ry="0" /><rect
           style="display:inline;fill:#0a350a;fill-opacity:1;stroke:none;stroke-width:1.98335"
           id="rect3412"
           width="13.140029"
           height="144.69199"
           x="583.10663"
           y="761.26697" /><rect
           style="display:inline;fill:#0a350a;fill-opacity:1;stroke:none;stroke-width:1.97985"
           id="rect3414"
           width="13.140029"
           height="144.18138"
           x="562.30023"
           y="758.63025" /></g></g><g
       inkscape:groupmode="layer"
       id="layer4"
       inkscape:label="Lantern"
       style="display:inline;fill:#aa0000"><g
         id="g540"
         inkscape:label="Lantern"
         transform="matrix(1.2983178,0,0,1.3213899,-377.32849,-257.74099)"><ellipse
           style="opacity:1;fill:#800000;fill-opacity:1;stroke:none;stroke-width:0;stroke-dasharray:none"
           id="ellipse11670"
           ry="119"
           rx="113"
           cy="700"
           cx="991" /><rect
           style="opacity:1;fill:#808000;fill-opacity:1;stroke:none;stroke-width:0;stroke-dasharray:none"
           id="rect11729"
           width="61"
           height="19"
           x="960"
           y="569"
           ry="9.5" /><rect
           style="fill:#808000;fill-opacity:1;stroke:none;stroke-width:0;stroke-dasharray:none"
           id="rect11729-6"
           width="61"
           height="19"
           x="963.5"
           y="814.5"
           ry="9.5" /></g><g
         aria-label="雷門"
         transform="matrix(1.7214534,0,0,0.99659052,-377.32849,-257.74099)"
         id="text11815"
         style="font-size:126.472px;letter-spacing:-5px;word-spacing:-5px;fill:#000000;stroke:#f9f9f9;stroke-width:0"
         inkscape:label="Text on lantern"><g
           id="path1527"
           style="fill:#000000"><path
             style="color:#000000;fill:#000000;stroke:none;-inkscape-stroke:none"
             d="m 780.51457,914.69457 v -3.95225 h -66.20019 v 5.43435 h -8.39853 v -50.39119 h 82.99725 v 48.90909 z m -66.20019,-41.00459 v 9.88063 h 28.65382 v -9.88063 z m 37.05235,17.78513 v 11.36271 h 29.14784 v -11.36271 z m -37.05235,0 v 11.36271 h 28.65382 v -11.36271 z m 37.05235,-17.78513 v 9.88063 h 29.14784 v -9.88063 z m 5.92837,-23.21947 h 29.14785 v 5.92838 H 757.2951 Z m 0,-12.84481 h 29.14785 v 5.92837 H 757.2951 Z m -49.40312,12.84481 h 29.14784 v 5.92838 h -29.14784 z m 0,-12.84481 h 29.14784 v 5.92837 h -29.14784 z m 35.07622,-14.82094 v -8.39853 h -39.5225 v -7.9045 h 87.44353 v 7.9045 h -39.5225 v 8.39853 h 48.90909 v 21.24335 h -8.39853 v -13.33885 h -40.51056 v 30.62994 h -8.39853 v -30.62994 h -40.51057 v 13.83288 h -8.39853 v -21.73738 z"
             id="path1534" /><path
             style="color:#000000;fill:#000000;stroke:none;-inkscape-stroke:none"
             d="m 780.51457,914.69457 v -3.95225 h -66.20019 v 5.43435 h -8.39853 v -50.39119 h 82.99725 v 48.90909 z m -66.20019,-41.00459 v 9.88063 h 28.65382 v -9.88063 z m 37.05235,17.78513 v 11.36271 h 29.14784 v -11.36271 z m -37.05235,0 v 11.36271 h 28.65382 v -11.36271 z m 37.05235,-17.78513 v 9.88063 h 29.14784 v -9.88063 z m 5.92837,-23.21947 h 29.14785 v 5.92838 H 757.2951 Z m 0,-12.84481 h 29.14785 v 5.92837 H 757.2951 Z m -49.40312,12.84481 h 29.14784 v 5.92838 h -29.14784 z m 0,-12.84481 h 29.14784 v 5.92837 h -29.14784 z m 35.07622,-14.82094 v -8.39853 h -39.5225 v -7.9045 h 87.44353 v 7.9045 h -39.5225 v 8.39853 h 48.90909 v 21.24335 h -8.39853 v -13.33885 h -40.51056 v 30.62994 h -8.39853 v -30.62994 h -40.51057 v 13.83288 h -8.39853 v -21.73738 z"
             id="path1536" /></g><g
           id="path1529"
           style="fill:#000000"><path
             style="color:#000000;fill:#000000;stroke:none;-inkscape-stroke:none"
             d="m 798.2997,1027.768 q 0,7.9045 -7.9045,7.9045 h -11.36272 l -1.97613,-9.3866 h 9.88063 q 1.48209,0 1.48209,-1.482 v -50.39123 h -25.68962 v 3.45822 h -9.88063 v -49.40313 h 45.45088 z m -65.70616,-49.89711 v -3.45822 h -25.68963 v 62.24793 h -9.88062 V 928.46776 h 45.45087 v 49.40313 z m -25.68963,-41.49863 v 10.86869 h 25.68963 v -10.86869 z m 0,18.77319 v 11.36272 h 25.68963 v -11.36272 z m 55.82554,11.36272 h 25.68962 v -11.36272 h -25.68962 z m 0,-30.13591 v 10.86869 h 25.68962 v -10.86869 z"
             id="path1540" /><path
             style="color:#000000;fill:#000000;stroke:none;-inkscape-stroke:none"
             d="m 798.2997,1027.768 c 0,5.2697 -2.63484,7.9045 -7.9045,7.9045 h -11.36272 l -1.97613,-9.3866 h 9.88063 c 0.98806,0 1.48209,-0.494 1.48209,-1.482 v -50.39123 h -25.68962 v 3.45822 h -9.88063 v -49.40313 h 45.45088 z m -65.70616,-49.89711 v -3.45822 h -25.68963 v 62.24793 h -9.88062 V 928.46776 h 45.45087 v 49.40313 z m -25.68963,-41.49863 v 10.86869 h 25.68963 v -10.86869 z m 0,18.77319 v 11.36272 h 25.68963 v -11.36272 z m 55.82554,11.36272 h 25.68962 v -11.36272 h -25.68962 z m 0,-30.13591 v 10.86869 h 25.68962 v -10.86869 z"
             id="path1542" /></g></g></g><path
       style="display:inline;fill:#502d16;fill-opacity:1;stroke:none"
       d="m 1580.1084,348.13404 -5.6569,55.15433 -277.1858,-5.65686 -7.0711,-43.84062 z"
       id="path5159"
       inkscape:label="Right beam" /><path
       style="display:inline;fill:#502d16;fill-opacity:1;stroke:none"
       d="m 232.36284,341.06297 5.65686,55.15433 277.18586,-5.65686 7.07106,-43.84062 z"
       id="path4940"
       inkscape:label="Left beam" /><g
       id="g11068"
       inkscape:label="Door Frame"
       style="display:inline"
       transform="translate(-78.764138,-70.473176)"><path
         id="path10963"
         style="display:inline;fill:#aa0000;fill-opacity:1;stroke:none;stroke-width:0;stroke-dasharray:none"
         d="m 564.82234,460.76777 -1.04109,33.35723 1.9e-4,16.07805 c -15.4973,7.40246 -21.76151,-9.02033 -21.95917,-24.83196 l 1.62514,-20.40583 -21.39663,-0.77385 c 4.88155,26.05758 0.0451,37.86594 7.67927,53.05347 14.35317,21.63433 29.27534,18.139 29.12737,21.69653 L 524,914.69531 c 56.91132,10.56377 36.414,-8.43965 47.58008,-82.21679 l 187.77539,0.11523 C 758.89714,902.88379 746.05291,926.34094 800.78125,917 l 12.56641,-385.52836 c 9.81503,-2.76855 21.39172,-4.73978 28.40245,-15.81392 6.65665,-16.95729 3.57673,-29.31763 5.24989,-46.27491 l -19.94486,0.68351 c 1.73487,11.16244 10e-4,8.51604 0.36343,22.45901 0.66649,13.43746 -9.05118,15.05575 -20.35183,18.33963 l -0.0277,-41.1738 -22.08398,-0.3084 0.66981,38.65373 c -6.53317,-0.97956 -9.17725,-0.0548 -15.71041,-6.60558 -7.95729,-9.31945 -4.83436,-19.86146 -5.96492,-34.83338 l -20.00815,0.70711 c 1.77498,17.0423 2.19048,39.20519 10.18183,47.57916 6.89875,10.77849 18.23132,13.13848 28.39258,14.427 l -0.70711,10.33767 -82.40663,0.0236 -0.67942,-31.87715 c 22.85775,-6.61572 17.08125,-27.54856 23.13476,-42.5664 l -63.0957,-1.03711 c 4.82041,15.22441 1.54862,33.48339 19.98047,43.60351 -2.08706,11.0392 -4.11425,21.95866 -5.27562,31.14649 l -84.51015,1.34746 c 16.04888,-4.91104 25.01921,-10.40582 32.29155,-18.9959 6.37951,-13.19928 6.12506,-40.96489 8.06844,-59.17774 l -21.71263,-0.11384 -1.39641,27.10035 c 0.61027,14.72253 -14.04019,24.7912 -21.43029,22.51553 l 1.42214,-50.5411 z M 780,569 l -2.0957,29 -187.25785,0.29289 1.83405,-27.20883 z M 773.12132,631.54481 763.88086,793.5 577,790.33398 590.0332,630.36497 Z"
         sodipodi:nodetypes="ccccccccccccccccccccccccccccccccccccccccccccccccccc" /><path
         style="display:inline;opacity:1;fill:#aa0000;fill-opacity:1;stroke:none;stroke-width:0;stroke-dasharray:none"
         d="m 569,464 4,22 816,2 5,-18 z"
         id="path11549"
         sodipodi:nodetypes="ccccc" /><path
         id="path11064"
         style="display:inline;fill:#aa0000;fill-opacity:1;stroke:none;stroke-width:0;stroke-dasharray:none"
         d="m 1405.2692,465.01041 1.0411,33.35723 -2e-4,16.07805 c 15.4973,7.40246 21.7615,-9.02033 21.9592,-24.83196 l -1.6252,-20.40583 21.3967,-0.77385 c -4.8816,26.05758 -0.045,37.86594 -7.6793,53.05347 -14.3532,21.63433 -29.2753,18.139 -29.1274,21.69653 l 34.8574,375.7539 c -56.9113,10.56377 -36.414,-8.43965 -47.58,-82.21679 l -187.7754,0.11523 c 0.4583,70.29004 13.3025,93.74719 -41.4258,84.40625 l -12.5664,-385.52836 c -9.815,-2.76855 -21.3917,-4.73978 -28.4025,-15.81392 -6.6566,-16.95729 -3.5767,-29.31763 -5.2499,-46.27491 l 19.9449,0.68351 c -1.7349,11.16244 -10e-4,8.51604 -0.3634,22.45901 -0.6665,13.43746 9.0512,15.05575 20.3518,18.33963 l 0.028,-41.1738 22.084,-0.3084 -0.6698,38.65373 c 6.5331,-0.97956 9.1772,-0.0548 15.7104,-6.60558 7.9573,-9.31945 4.8343,-19.86146 5.9649,-34.83338 l 20.0082,0.70711 c -1.775,17.0423 -2.1905,39.20519 -10.1819,47.57916 -6.8987,10.77849 -18.2313,13.13848 -28.3926,14.427 l 0.7072,10.33767 82.4066,0.0236 0.6794,-31.87715 c -22.8577,-6.61572 -17.0812,-27.54856 -23.1348,-42.5664 l 63.0957,-1.03711 c -4.8204,15.22441 -1.5486,33.48339 -19.9804,43.60351 2.087,11.0392 4.1142,21.95866 5.2756,31.14649 l 84.5101,1.34746 c -16.0488,-4.91104 -25.0192,-10.40582 -32.2915,-18.9959 -6.3795,-13.19928 -6.1251,-40.96489 -8.0684,-59.17774 l 21.7126,-0.11384 1.3964,27.10035 c -0.6103,14.72253 14.0402,24.7912 21.4303,22.51553 l -1.4222,-50.5411 z m -215.1777,108.23223 2.0957,29 187.2579,0.29289 -1.8341,-27.20883 z m 6.8787,62.54481 9.2405,161.95519 186.8808,-3.16602 -13.0332,-159.96901 z"
         sodipodi:nodetypes="ccccccccccccccccccccccccccccccccccccccccccccccccccc" /><path
         style="opacity:1;fill:#aa0000;fill-opacity:1;stroke:none;stroke-width:0;stroke-dasharray:none"
         d="m 1176.6824,542.43929 1.3575,30.3172 -389.61583,-2.88735 v -31.76088 z"
         id="path11197" /><path
         style="display:inline;fill:#aa0000;fill-opacity:1;stroke:none;stroke-width:0;stroke-dasharray:none"
         d="m 1443.221,897.3185 h -273.6771 l 0.011,43.84062 277.893,3.53552 z"
         id="path11200-0"
         sodipodi:nodetypes="ccccc" /><path
         style="display:inline;opacity:1;fill:#aa0000;fill-opacity:1;stroke:none;stroke-width:0;stroke-dasharray:none"
         d="m 524.67323,892.36876 h 275.77165 l 1.41421,48.08326 -280.01429,-2.82843 z"
         id="path11200" /><path
         style="display:inline;fill:#000000;fill-opacity:1;stroke:none"
         d="m 525.43971,889.20567 c -4.14548,49.74577 -3.10911,51.81851 -3.10911,51.81851 l 45.60029,-1.03637 2.07274,-50.78214 z"
         id="path3568"
         sodipodi:nodetypes="ccccc" /><path
         style="display:inline;fill:#000000;fill-opacity:1;stroke:none"
         d="m 1443.6062,894.38752 c 4.1455,49.74577 3.1092,51.81851 3.1092,51.81851 l -45.6003,-1.03637 -2.0728,-50.78214 z"
         id="path3568-4"
         sodipodi:nodetypes="ccccc" /><path
         style="display:inline;fill:#000000;fill-opacity:1;stroke:none;stroke-width:1.01119"
         d="m 1214.9465,895.42389 c 4.3254,48.75085 1.1714,47.15484 1.1714,47.15484 l -47.5781,-1.01564 0.4282,-47.17557 z"
         id="path3568-4-5"
         sodipodi:nodetypes="ccccc" /><path
         style="display:inline;fill:#000000;fill-opacity:1;stroke:none;stroke-width:1.01119"
         d="m 754.17865,891.5345 c -4.3254,48.75085 -3.24414,50.26395 -3.24414,50.26395 l 50.16902,0.53892 0.09,-49.7665 z"
         id="path3568-4-5-3"
         sodipodi:nodetypes="ccccc" /></g><rect
       style="display:inline;fill:#004926;fill-opacity:1;stroke:#808000;stroke-width:8;stroke-dasharray:none"
       id="rect6875"
       width="152.73506"
       height="66.46804"
       x="833.40356"
       y="417.43051"
       inkscape:label="Plate" /><text
       xml:space="preserve"
       style="font-size:42.6667px;direction:ltr;display:inline;opacity:1;fill:#808000;fill-opacity:1;stroke:none;stroke-width:0;stroke-dasharray:none"
       x="844.23572"
       y="466.52682"
       id="text11278"
       inkscape:label="Name on Plate"><tspan
         sodipodi:role="line"
         id="tspan11276"
         x="844.23572"
         y="466.52682">山龍金</tspan></text><path
       style="display:inline;opacity:1;fill:#1a1a1a;fill-opacity:1;stroke:none;stroke-width:0;stroke-dasharray:none"
       d="m 495.23586,398.52682 v 14 l 823.00004,-3 2,-18 z"
       id="path11546"
       inkscape:label="Shadow" /><g
       id="g3948"
       inkscape:label="White deco on door"
       transform="translate(-78.764138,-70.473176)"><path
         style="display:inline;fill:#ffffff;fill-opacity:1;stroke:none;stroke-width:1.01079"
         d="m 587.49438,601.09472 c -0.30197,17.22643 -0.98505,29.00218 -2.00524,27.98199 l -27.93455,-1.0363 2.02773,-27.98206 z"
         id="path3568-4-6"
         sodipodi:nodetypes="ccccc" /><path
         style="display:inline;fill:#ffffff;fill-opacity:1;stroke:none;stroke-width:1.01079"
         d="m 570.81722,794.43538 c -0.30197,17.22643 -0.98505,29.00218 -2.00524,27.98199 l -27.93455,-1.0363 2.02773,-27.98206 z"
         id="path3568-4-6-5"
         sodipodi:nodetypes="ccccc" /><path
         style="display:inline;fill:#ffffff;fill-opacity:1;stroke:none;stroke-width:1.01079"
         d="m 794.69509,799.56515 c -0.30197,17.22643 -0.98505,29.00218 -2.00524,27.98199 l -27.93455,-1.0363 2.02773,-27.98206 z"
         id="path3568-4-6-0"
         sodipodi:nodetypes="ccccc" /><path
         style="display:inline;fill:#ffffff;fill-opacity:1;stroke:none;stroke-width:1.01079"
         d="m 806.42027,601.70255 c -0.30197,17.22643 -0.98505,29.00218 -2.00524,27.98199 l -27.93455,-1.0363 2.02773,-27.98206 z"
         id="path3568-4-6-1"
         sodipodi:nodetypes="ccccc" /><path
         style="display:inline;fill:#ffffff;fill-opacity:1;stroke:none;stroke-width:1.01079"
         d="m 1163.4003,604.63861 c -0.3668,17.22517 -0.1413,29.01856 0.9176,28.03873 l 27.9538,0.0487 -0.9401,-28.03968 z"
         id="path3568-4-6-09"
         sodipodi:nodetypes="ccccc" /><path
         style="display:inline;fill:#ffffff;fill-opacity:1;stroke:none;stroke-width:1.01079"
         d="m 1382.6733,603.62891 c -0.3668,17.22517 -0.1413,29.01856 0.9176,28.03873 l 27.9538,0.0487 -0.9401,-28.03968 z"
         id="path3568-4-6-09-1"
         sodipodi:nodetypes="ccccc" /><path
         style="display:inline;fill:#ffffff;fill-opacity:1;stroke:none;stroke-width:1.01079"
         d="m 1399.7734,799.50287 c -0.3668,17.22517 -0.1413,29.01856 0.9176,28.03873 l 27.9538,0.0487 -0.9401,-28.03968 z"
         id="path3568-4-6-09-9"
         sodipodi:nodetypes="ccccc" /><path
         style="display:inline;fill:#ffffff;fill-opacity:1;stroke:none;stroke-width:1.01079"
         d="m 1174.3629,803.13018 c -0.3668,17.22517 -0.1413,29.01856 0.9176,28.03873 l 27.9538,0.0487 -0.9401,-28.03968 z"
         id="path3568-4-6-09-0"
         sodipodi:nodetypes="ccccc" /></g></g><g
     inkscape:groupmode="layer"
     id="layer2"
     inkscape:label="Draw - Roof"
     style="display:inline;fill:#008080"><path
       style="display:inline;fill:#800000;fill-opacity:1;stroke:none;stroke-width:1.52327"
       d="m 247.52159,347.90913 173.0915,55.60734 c 723.66461,4.08324 -342.341368,0.21338 931.94741,0.20649 l 215.9486,-54.74829 z"
       id="path5325"
       sodipodi:nodetypes="ccccc"
       inkscape:label="Innermost beam" /><path
       style="display:inline;fill:#4d4d4d;fill-opacity:1;stroke:none;stroke-width:0.979916"
       d="m 336.84578,343.96645 1110.14232,1.19156 -36.5383,42.90032 c -529.42717,8.79993 -669.59314,4.30786 -1064.48519,-7.66841 z"
       id="path4937"
       sodipodi:nodetypes="ccccc"
       inkscape:label="Outer beam" /><path
       style="display:inline;fill:#005858;fill-opacity:1"
       d="m 439.23586,217.52682 c 311.41006,34.50818 621.25474,31.44663 930.00004,2 18.2723,61.50315 55.4234,100.79605 119,109 l -1157.00004,4 c 60.12686,-28.89239 108.64867,-62.32588 108,-115 z"
       id="path3126"
       sodipodi:nodetypes="ccccc"
       inkscape:label="Lower roof" /><path
       style="display:inline;mix-blend-mode:normal;fill:#1b7070;fill-opacity:1;stroke:none"
       d="m 481.26443,250.5533 c 324.34836,20.12818 610.18627,20.16393 847.82107,-4.94975 41.0484,27.19647 84.0921,63.76175 160.5132,50.20458 l 1.4143,32.52691 c 48.7905,-1.54507 101.6362,-0.83726 134.3502,-11.3137 -9.8054,7.98352 -33.1903,13.05717 -19.0918,26.16295 -479.9339,54.7009 -956.33863,32.78185 -1388.05069,2.12132 0.22992,-9.8995 5.08568,-19.79899 -25.45585,-29.69849 46.30814,9.75956 90.39642,12.85957 132.93608,11.31371 v -29.69848 c 67.10682,7.88921 136.93827,-9.55604 155.56349,-46.66905 z"
       id="path4063"
       sodipodi:nodetypes="ccccccccccc"
       inkscape:label="Top roof" /><g
       id="g10790"
       inkscape:label="Set of inner beams"
       style="display:inline"
       transform="translate(-78.764138,-70.473176)"><rect
         style="fill:#ff8080;fill-opacity:1;stroke:none;stroke-width:0;stroke-dasharray:none"
         id="rect10119"
         width="17"
         height="16"
         x="486"
         y="462" /><rect
         style="display:inline;fill:#ff8080;fill-opacity:1;stroke:none;stroke-width:0;stroke-dasharray:none"
         id="rect10119-6"
         width="17"
         height="16"
         x="514.5"
         y="462" /><rect
         style="display:inline;fill:#ff8080;fill-opacity:1;stroke:none;stroke-width:0;stroke-dasharray:none"
         id="rect10119-6-0"
         width="17"
         height="16"
         x="542.5"
         y="462" /><rect
         style="display:inline;fill:#ff8080;fill-opacity:1;stroke:none;stroke-width:0;stroke-dasharray:none"
         id="rect10119-1"
         width="17"
         height="16"
         x="571.25"
         y="462" /><rect
         style="display:inline;fill:#ff8080;fill-opacity:1;stroke:none;stroke-width:0;stroke-dasharray:none"
         id="rect10119-6-9"
         width="17"
         height="16"
         x="599.75"
         y="462" /><rect
         style="display:inline;fill:#ff8080;fill-opacity:1;stroke:none;stroke-width:0;stroke-dasharray:none"
         id="rect10119-6-0-6"
         width="17"
         height="16"
         x="627.75"
         y="463" /><rect
         style="display:inline;fill:#ff8080;fill-opacity:1;stroke:none;stroke-width:0;stroke-dasharray:none"
         id="rect10119-8"
         width="17"
         height="16"
         x="656.625"
         y="463" /><rect
         style="display:inline;fill:#ff8080;fill-opacity:1;stroke:none;stroke-width:0;stroke-dasharray:none"
         id="rect10119-6-4"
         width="17"
         height="16"
         x="685.125"
         y="463" /><rect
         style="display:inline;fill:#ff8080;fill-opacity:1;stroke:none;stroke-width:0;stroke-dasharray:none"
         id="rect10119-6-0-0"
         width="17"
         height="16"
         x="714.125"
         y="464" /><rect
         style="display:inline;fill:#ff8080;fill-opacity:1;stroke:none;stroke-width:0;stroke-dasharray:none"
         id="rect10119-1-4"
         width="17"
         height="16"
         x="742.875"
         y="464" /><rect
         style="display:inline;fill:#ff8080;fill-opacity:1;stroke:none;stroke-width:0;stroke-dasharray:none"
         id="rect10119-6-9-1"
         width="17"
         height="16"
         x="771.375"
         y="464" /><rect
         style="display:inline;fill:#ff8080;fill-opacity:1;stroke:none;stroke-width:0;stroke-dasharray:none"
         id="rect10119-6-0-6-4"
         width="17"
         height="16"
         x="799.375"
         y="464" /><rect
         style="display:inline;fill:#ff8080;fill-opacity:1;stroke:none;stroke-width:0;stroke-dasharray:none"
         id="rect10119-8-3"
         width="17"
         height="16"
         x="828.625"
         y="464" /><rect
         style="display:inline;fill:#ff8080;fill-opacity:1;stroke:none;stroke-width:0;stroke-dasharray:none"
         id="rect10119-6-4-4"
         width="17"
         height="16"
         x="857.125"
         y="464" /><rect
         style="display:inline;fill:#ff8080;fill-opacity:1;stroke:none;stroke-width:0;stroke-dasharray:none"
         id="rect10119-6-0-0-3"
         width="17"
         height="16"
         x="885.125"
         y="464" /><rect
         style="display:inline;fill:#ff8080;fill-opacity:1;stroke:none;stroke-width:0;stroke-dasharray:none"
         id="rect10119-1-4-3"
         width="17"
         height="16"
         x="913.875"
         y="464" /><rect
         style="display:inline;fill:#ff8080;fill-opacity:1;stroke:none;stroke-width:0;stroke-dasharray:none"
         id="rect10119-6-9-1-6"
         width="17"
         height="16"
         x="942.375"
         y="464" /><rect
         style="display:inline;fill:#ff8080;fill-opacity:1;stroke:none;stroke-width:0;stroke-dasharray:none"
         id="rect10119-6-0-6-4-0"
         width="17"
         height="16"
         x="970.375"
         y="464" /><rect
         style="display:inline;fill:#ff8080;fill-opacity:1;stroke:none;stroke-width:0;stroke-dasharray:none"
         id="rect10119-8-0"
         width="17"
         height="16"
         x="997.625"
         y="464" /><rect
         style="display:inline;fill:#ff8080;fill-opacity:1;stroke:none;stroke-width:0;stroke-dasharray:none"
         id="rect10119-6-4-1"
         width="17"
         height="16"
         x="1026.125"
         y="464" /><rect
         style="display:inline;fill:#ff8080;fill-opacity:1;stroke:none;stroke-width:0;stroke-dasharray:none"
         id="rect10119-6-0-0-5"
         width="17"
         height="16"
         x="1054.125"
         y="464" /><rect
         style="display:inline;fill:#ff8080;fill-opacity:1;stroke:none;stroke-width:0;stroke-dasharray:none"
         id="rect10119-1-4-2"
         width="17"
         height="16"
         x="1082.875"
         y="464" /><rect
         style="display:inline;fill:#ff8080;fill-opacity:1;stroke:none;stroke-width:0;stroke-dasharray:none"
         id="rect10119-6-9-1-2"
         width="17"
         height="16"
         x="1111.375"
         y="464" /><rect
         style="display:inline;fill:#ff8080;fill-opacity:1;stroke:none;stroke-width:0;stroke-dasharray:none"
         id="rect10119-6-0-6-4-4"
         width="17"
         height="16"
         x="1139.375"
         y="464" /><rect
         style="display:inline;fill:#ff8080;fill-opacity:1;stroke:none;stroke-width:0;stroke-dasharray:none"
         id="rect10119-6-4-1-8"
         width="17"
         height="16"
         x="1166.875"
         y="463" /><rect
         style="display:inline;fill:#ff8080;fill-opacity:1;stroke:none;stroke-width:0;stroke-dasharray:none"
         id="rect10119-6-0-0-5-0"
         width="17"
         height="16"
         x="1194.875"
         y="463" /><rect
         style="display:inline;fill:#ff8080;fill-opacity:1;stroke:none;stroke-width:0;stroke-dasharray:none"
         id="rect10119-1-4-2-4"
         width="17"
         height="16"
         x="1223.625"
         y="463" /><rect
         style="display:inline;fill:#ff8080;fill-opacity:1;stroke:none;stroke-width:0;stroke-dasharray:none"
         id="rect10119-6-9-1-2-6"
         width="17"
         height="16"
         x="1252.125"
         y="463" /><rect
         style="display:inline;fill:#ff8080;fill-opacity:1;stroke:none;stroke-width:0;stroke-dasharray:none"
         id="rect10119-6-0-6-4-4-0"
         width="17"
         height="16"
         x="1280.125"
         y="463" /><rect
         style="display:inline;fill:#ff8080;fill-opacity:1;stroke:none;stroke-width:0;stroke-dasharray:none"
         id="rect10119-6-4-1-7"
         width="17"
         height="16"
         x="1307.875"
         y="462" /><rect
         style="display:inline;fill:#ff8080;fill-opacity:1;stroke:none;stroke-width:0;stroke-dasharray:none"
         id="rect10119-6-0-0-5-4"
         width="17"
         height="16"
         x="1335.875"
         y="462" /><rect
         style="display:inline;fill:#ff8080;fill-opacity:1;stroke:none;stroke-width:0;stroke-dasharray:none"
         id="rect10119-1-4-2-2"
         width="17"
         height="16"
         x="1364.625"
         y="462" /><rect
         style="display:inline;fill:#ff8080;fill-opacity:1;stroke:none;stroke-width:0;stroke-dasharray:none"
         id="rect10119-6-9-1-2-2"
         width="17"
         height="16"
         x="1393.125"
         y="462" /><rect
         style="display:inline;fill:#ff8080;fill-opacity:1;stroke:none;stroke-width:0;stroke-dasharray:none"
         id="rect10119-6-0-6-4-4-3"
         width="17"
         height="16"
         x="1421.125"
         y="462" /></g></g></svg>
